<?xml version="1.0" ?><svg viewBox="0 0 32 32" xmlns="http://www.w3.org/2000/svg"><title/><g id="Handsfree"><path d="M10.18,17.53a1.84,1.84,0,1,0,3.68,0V15.69H10.18Z"/><path d="M1,7.43a2.12,2.12,0,0,0,.63,1.51,2.08,2.08,0,0,0,1.51.63H3.6V5.29H3.14A2.14,2.14,0,0,0,1,7.43Z"/><rect height="12.86" rx="1.07" ry="1.07" width="2.76" x="4.67" y="1"/><path d="M9.26,2.83H8.5V12h.76a4.6,4.6,0,1,0,0-9.19Z"/><path d="M10.18,13v1.61h3.68V10.74A5.64,5.64,0,0,1,10.18,13Z"/><path d="M11.49,20.39V30.46A.54.54,0,0,0,12,31a.54.54,0,0,0,.54-.54V20.39a4.51,4.51,0,0,1-.54.05A4.53,4.53,0,0,1,11.49,20.39Z"/><path d="M18.14,17.53a1.84,1.84,0,1,0,3.68,0V15.69H18.14Z"/><path d="M28.86,5.29H28.4V9.57h.46a2.08,2.08,0,0,0,1.51-.63,2.14,2.14,0,0,0-1.51-3.65Z"/><rect height="12.86" rx="1.07" ry="1.07" width="2.76" x="24.57" y="1"/><path d="M18.14,7.43A4.59,4.59,0,0,0,22.74,12h.76V2.83h-.76A4.6,4.6,0,0,0,18.14,7.43Z"/><path d="M18.14,10.74v3.88h3.68V13A5.64,5.64,0,0,1,18.14,10.74Z"/><path d="M19.44,20.39V30.46A.54.54,0,0,0,20,31a.54.54,0,0,0,.53-.54V20.39a4.53,4.53,0,0,1-.53.05A4.51,4.51,0,0,1,19.44,20.39Z"/></g></svg>