<?xml version="1.0" ?><!DOCTYPE svg  PUBLIC '-//W3C//DTD SVG 1.1//EN'  'http://www.w3.org/Graphics/SVG/1.1/DTD/svg11.dtd'><svg height="100%" style="fill-rule:evenodd;clip-rule:evenodd;stroke-linejoin:round;stroke-miterlimit:2;" version="1.1" viewBox="0 0 64 64" width="100%" xml:space="preserve" xmlns="http://www.w3.org/2000/svg" xmlns:serif="http://www.serif.com/" xmlns:xlink="http://www.w3.org/1999/xlink"><g id="ICON"><path d="M20.752,51.492l0,4.508c0,0.404 0.244,0.769 0.618,0.924c0.373,0.155 0.803,0.069 1.089,-0.217l5.207,-5.207l15.334,-0c2.209,0 4,-1.791 4,-4l0,-12c-0,-2.209 -1.791,-4 -4,-4l-22,-0c-2.209,0 -4,1.791 -4,4l0,12c0,2.126 1.658,3.864 3.752,3.992Zm8.914,-1.992l13.334,-0c1.105,0 2,-0.895 2,-2c-0,0 0,-12 -0,-12c-0,-1.105 -0.895,-2 -2,-2c0,0 -22,-0 -22,0c-1.105,0 -2,0.895 -2,2c-0,-0 0,12 0,12c0,1.021 0.765,1.863 1.752,1.985l0,-1.761c0,-0.552 0.448,-1 1,-1c0.552,0 1,0.448 1,1c0,0 0,5.862 0,5.862l6.541,-6.541c0.39,-0.39 1.024,-0.39 1.414,0c0.39,0.39 0.39,1.024 0,1.414l-1.041,1.041Zm-17.666,-21c-0.734,-0 -1.44,0.269 -1.987,0.752c-0.087,-0.001 -0.175,0.009 -0.263,0.032c-3.88,1 -6.75,4.526 -6.75,8.716c0,3.986 2.598,7.371 6.19,8.552c0.149,0.398 0.383,0.763 0.689,1.069c0.562,0.563 1.325,0.879 2.121,0.879c1.392,-0 3,-0 3,-0c0.552,0 1,-0.448 1,-1l0,-18c0,-0.552 -0.448,-1 -1,-1l-1,-0l0,-2.5c0,-9.389 7.611,-17 17,-17l2,-0c4.509,0 8.833,1.791 12.021,4.979c3.188,3.188 4.979,7.512 4.979,12.021l0,2.5l-1,-0c-0.552,-0 -1,0.448 -1,1l-0,18c-0,0.552 0.448,1 1,1l3,-0c0.796,0 1.559,-0.316 2.121,-0.879c0.306,-0.306 0.54,-0.671 0.689,-1.069c3.592,-1.181 6.19,-4.566 6.19,-8.552c0,-4.19 -2.87,-7.716 -6.75,-8.716c-0.088,-0.023 -0.176,-0.033 -0.263,-0.032c-0.547,-0.483 -1.253,-0.752 -1.987,-0.752l0,-2.5c0,-5.039 -2.002,-9.872 -5.565,-13.435c-3.563,-3.563 -8.396,-5.565 -13.435,-5.565l-2,0c-10.493,0 -19,8.507 -19,19l0,2.5Zm38,2l2,-0c0.265,-0 0.52,0.105 0.707,0.293c0.188,0.187 0.293,0.442 0.293,0.707l-0,14c0,0.265 -0.105,0.52 -0.293,0.707c-0.187,0.188 -0.442,0.293 -0.707,0.293l-2,-0l-0,-16Zm-36,16l-2,-0c-0.265,0 -0.52,-0.105 -0.707,-0.293c-0.188,-0.187 -0.293,-0.442 -0.293,-0.707l-0,-14c-0,-0.265 0.105,-0.52 0.293,-0.707c0.187,-0.188 0.442,-0.293 0.707,-0.293l2,-0l0,16Zm17.975,-8.192c-1.762,-0 -3.192,1.43 -3.192,3.192c-0,1.762 1.43,3.192 3.192,3.192c1.762,0 3.193,-1.43 3.193,-3.192c-0,-1.762 -1.431,-3.192 -3.193,-3.192Zm8.833,-0c-1.762,-0 -3.193,1.43 -3.193,3.192c0,1.762 1.431,3.192 3.193,3.192c1.762,0 3.192,-1.43 3.192,-3.192c0,-1.762 -1.43,-3.192 -3.192,-3.192Zm-17.616,-0.193c-1.762,0 -3.192,1.431 -3.192,3.193c0,1.762 1.43,3.192 3.192,3.192c1.762,-0 3.193,-1.43 3.193,-3.192c-0,-1.762 -1.431,-3.193 -3.193,-3.193Zm31.808,-6.441l-0,12.652c2.364,-1.125 4,-3.536 4,-6.326c0,-2.79 -1.636,-5.201 -4,-6.326Zm-46,0c-2.364,1.125 -4,3.536 -4,6.326c0,2.79 1.636,5.201 4,6.326l0,-12.652Zm22.975,8.634c0.658,-0 1.193,0.534 1.193,1.192c-0,0.658 -0.535,1.192 -1.193,1.192c-0.658,0 -1.192,-0.534 -1.192,-1.192c-0,-0.658 0.534,-1.192 1.192,-1.192Zm8.833,-0c0.658,-0 1.192,0.534 1.192,1.192c-0,0.658 -0.534,1.192 -1.192,1.192c-0.658,0 -1.193,-0.534 -1.193,-1.192c0,-0.658 0.535,-1.192 1.193,-1.192Zm-17.616,-0.193c0.658,0 1.193,0.535 1.193,1.193c-0,0.658 -0.535,1.192 -1.193,1.192c-0.658,-0 -1.192,-0.534 -1.192,-1.192c0,-0.658 0.534,-1.193 1.192,-1.193Zm7.808,-22.448l0,9.333c-0,0.552 0.448,1 1,1c0.552,0 1,-0.448 1,-1l0,-9.333c-0,-0.552 -0.448,-1 -1,-1c-0.552,-0 -1,0.448 -1,1Zm-4,1.333l0,6.667c-0,0.552 0.448,1 1,1c0.552,-0 1,-0.448 1,-1l0,-6.667c-0,-0.552 -0.448,-1 -1,-1c-0.552,0 -1,0.448 -1,1Zm8,-0l0,6.667c0,0.552 0.448,1 1,1c0.552,-0 1,-0.448 1,-1l0,-6.667c0,-0.552 -0.448,-1 -1,-1c-0.552,-0 -1,0.448 -1,1Zm4,1.333l0,4c0,0.552 0.448,1 1,1c0.552,0 1,-0.448 1,-1l0,-4c0,-0.552 -0.448,-1 -1,-1c-0.552,0 -1,0.448 -1,1Zm-16,0l0,4c-0,0.552 0.448,1 1,1c0.552,0 1,-0.448 1,-1l0,-4c-0,-0.552 -0.448,-1 -1,-1c-0.552,0 -1,0.448 -1,1Zm-4,1.334l0,1.333c0,0.552 0.448,1 1,1c0.552,-0 1,-0.448 1,-1l0,-1.333c0,-0.552 -0.448,-1 -1,-1c-0.552,-0 -1,0.448 -1,1Zm24,-0l0,1.333c0,0.552 0.448,1 1,1c0.552,-0 1,-0.448 1,-1l0,-1.333c0,-0.552 -0.448,-1 -1,-1c-0.552,-0 -1,0.448 -1,1Z"/></g></svg>